<svg width="85" height="85" viewBox="0 0 85 85" fill="none" xmlns="http://www.w3.org/2000/svg">
<circle cx="42.5" cy="42.5" r="42" stroke="white"/>
<path d="M63.6746 55.4948H59.3157C59.1437 55.4948 58.9787 55.413 58.857 55.2674C58.7354 55.1219 58.6671 54.9245 58.6671 54.7186C58.6671 54.5128 58.7354 54.3153 58.857 54.1698C58.9787 54.0242 59.1437 53.9425 59.3157 53.9425H63.6746C63.7898 53.9422 63.9003 53.8874 63.9817 53.7899C64.0632 53.6924 64.109 53.5603 64.1092 53.4224V50.9697C64.1077 49.2885 63.5488 47.6767 62.5553 46.4878C61.5618 45.299 60.2148 44.6303 58.8098 44.6285H21.2984V52.5221C21.2987 52.8987 21.4239 53.2597 21.6464 53.526C21.869 53.7923 22.1707 53.942 22.4854 53.9425H25.2422C25.4142 53.9425 25.5792 54.0242 25.7008 54.1698C25.8225 54.3153 25.8908 54.5128 25.8908 54.7186C25.8908 54.9245 25.8225 55.1219 25.7008 55.2674C25.5792 55.413 25.4142 55.4948 25.2422 55.4948H22.4854C21.8268 55.494 21.1953 55.1805 20.7295 54.6232C20.2637 54.0659 20.0018 53.3102 20.0011 52.5221V43.8523C20.0011 43.6465 20.0694 43.4491 20.1911 43.3035C20.3127 43.1579 20.4777 43.0762 20.6497 43.0762H58.8098C60.5587 43.0784 62.2356 43.9108 63.4723 45.3906C64.709 46.8705 65.4046 48.8769 65.4065 50.9697V53.4224C65.406 53.9719 65.2234 54.4986 64.8987 54.8871C64.574 55.2756 64.1338 55.4942 63.6746 55.4948V55.4948Z" fill="white"/>
<path d="M51.3503 55.4948H33.4022C33.2302 55.4948 33.0652 55.4131 32.9435 55.2675C32.8219 55.1219 32.7535 54.9245 32.7535 54.7187C32.7535 54.5128 32.8219 54.3154 32.9435 54.1698C33.0652 54.0243 33.2302 53.9425 33.4022 53.9425H51.3503C51.5223 53.9425 51.6873 54.0243 51.8089 54.1698C51.9306 54.3154 51.9989 54.5128 51.9989 54.7187C51.9989 54.9245 51.9306 55.1219 51.8089 55.2675C51.6873 55.4131 51.5223 55.4948 51.3503 55.4948Z" fill="white"/>
<path d="M20.6498 44.6324C20.6022 44.6323 20.5548 44.6261 20.5084 44.6138C20.4252 44.5918 20.3464 44.5503 20.2766 44.4918C20.2068 44.4334 20.1474 44.359 20.1016 44.273C20.0558 44.187 20.0246 44.0911 20.0098 43.9907C19.9951 43.8903 19.9969 43.7874 20.0154 43.6878C20.844 39.8275 22.7611 36.4278 25.4427 34.0634C26.297 33.3588 27.311 32.9837 28.3486 32.9884H44.7296C45.6118 32.9897 46.4844 33.2088 47.2926 33.6322C48.1008 34.0556 48.8272 34.674 49.4264 35.4489L55.5043 43.3285C55.566 43.4024 55.6147 43.4905 55.6473 43.5874C55.6799 43.6844 55.6958 43.7882 55.6941 43.8927C55.6923 43.9972 55.673 44.1002 55.6372 44.1955C55.6014 44.2908 55.5498 44.3765 55.4857 44.4474C55.4215 44.5183 55.3461 44.573 55.2638 44.6081C55.1816 44.6433 55.0942 44.6582 55.0071 44.652C54.9199 44.6458 54.8346 44.6186 54.7564 44.572C54.6783 44.5255 54.6087 44.4605 54.5521 44.381L48.4768 36.5037C47.999 35.8861 47.4198 35.3931 46.7755 35.0556C46.1311 34.7182 45.4355 34.5434 44.7322 34.5423H28.3492C27.5746 34.539 26.8177 34.8193 26.1802 35.3457C22.3434 38.5147 21.2932 43.9696 21.2835 44.0247C21.2515 44.1972 21.1712 44.3514 21.056 44.4619C20.9407 44.5724 20.7975 44.6326 20.6498 44.6324V44.6324Z" fill="white"/>
<path d="M40.758 44.6324C40.6032 44.6322 40.4536 44.5657 40.3362 44.445C40.2187 44.3243 40.1413 44.1573 40.1177 43.9742L38.8205 33.8841C38.8042 33.7816 38.8054 33.6762 38.8239 33.5743C38.8425 33.4723 38.878 33.3759 38.9284 33.2908C38.9788 33.2056 39.043 33.1335 39.1173 33.0788C39.1915 33.024 39.2742 32.9877 39.3604 32.9721C39.4466 32.9564 39.5345 32.9617 39.619 32.9876C39.7034 33.0136 39.7827 33.0596 39.8519 33.123C39.9212 33.1864 39.979 33.2659 40.022 33.3566C40.065 33.4474 40.0923 33.5476 40.1022 33.6513L41.3995 43.7414C41.4133 43.8518 41.407 43.9645 41.3811 44.0717C41.3552 44.179 41.3103 44.2783 41.2494 44.3628C41.1885 44.4474 41.1131 44.5153 41.0283 44.5618C40.9435 44.6083 40.8513 44.6324 40.758 44.6324Z" fill="white"/>
<path d="M28.4337 44.6325C28.369 44.6326 28.3046 44.6208 28.243 44.5975C28.0786 44.537 27.9411 44.4009 27.8606 44.2192C27.78 44.0374 27.7631 43.8248 27.8135 43.6281L30.4081 33.538C30.4332 33.4405 30.474 33.35 30.5283 33.2714C30.5826 33.1928 30.6493 33.1279 30.7246 33.0801C30.7999 33.0324 30.8823 33.0029 30.9671 32.9933C31.0519 32.9837 31.1375 32.9942 31.219 33.0242C31.3004 33.0541 31.3761 33.103 31.4417 33.168C31.5074 33.2329 31.5617 33.3128 31.6016 33.4028C31.6415 33.4929 31.6661 33.5915 31.6741 33.693C31.6822 33.7945 31.6734 33.8969 31.6484 33.9944L29.0538 44.0845C29.013 44.2432 28.9307 44.382 28.8191 44.4807C28.7075 44.5793 28.5724 44.6325 28.4337 44.6325V44.6325Z" fill="white"/>
<path d="M55.3389 60.4933C54.422 60.4934 53.5257 60.1682 52.7632 59.5588C52.0007 58.9493 51.4064 58.083 51.0555 57.0694C50.7045 56.0558 50.6126 54.9404 50.7914 53.8643C50.9702 52.7882 51.4117 51.7997 52.06 51.0238C52.7083 50.248 53.5343 49.7196 54.4336 49.5055C55.3329 49.2913 56.2651 49.4012 57.1122 49.821C57.9594 50.2408 58.6834 50.9518 59.1929 51.8641C59.7023 52.7763 59.9742 53.8489 59.9742 54.946C59.9728 56.4166 59.484 57.8265 58.6151 58.8664C57.7461 59.9064 56.5679 60.4914 55.3389 60.4933ZM55.3389 50.9519C54.6786 50.9518 54.033 51.1859 53.4839 51.6248C52.9347 52.0638 52.5067 52.6877 52.254 53.4177C52.0012 54.1477 51.935 54.951 52.0638 55.726C52.1926 56.501 52.5106 57.2129 52.9775 57.7716C53.4445 58.3304 54.0394 58.7109 54.6871 58.865C55.3348 59.0191 56.0061 58.9399 56.6162 58.6375C57.2263 58.335 57.7477 57.8229 58.1145 57.1658C58.4813 56.5087 58.677 55.7362 58.6769 54.946C58.6762 53.8868 58.3244 52.8712 57.6986 52.1221C57.0727 51.373 56.2241 50.9516 55.3389 50.9504V50.9519Z" fill="white"/>
<path d="M55.3389 57.5525C54.9078 57.5526 54.4864 57.3998 54.1279 57.1134C53.7694 56.8269 53.49 56.4196 53.3249 55.9431C53.1598 55.4666 53.1166 54.9422 53.2006 54.4363C53.2846 53.9303 53.4922 53.4656 53.7969 53.1008C54.1017 52.736 54.4901 52.4875 54.9128 52.3868C55.3356 52.2861 55.7739 52.3377 56.1722 52.5351C56.5705 52.7325 56.9109 53.0667 57.1504 53.4956C57.3899 53.9245 57.5177 54.4288 57.5177 54.9446C57.5172 55.6359 57.2875 56.2988 56.879 56.7877C56.4706 57.2766 55.9167 57.5517 55.3389 57.5525ZM55.3389 53.8898C55.1644 53.8896 54.9937 53.9514 54.8486 54.0673C54.7034 54.1833 54.5902 54.3481 54.5234 54.541C54.4565 54.734 54.439 54.9463 54.473 55.1511C54.5071 55.3559 54.5911 55.5441 54.7145 55.6918C54.8379 55.8394 54.9952 55.94 55.1663 55.9807C55.3375 56.0214 55.5149 56.0004 55.6762 55.9204C55.8374 55.8404 55.9752 55.705 56.072 55.5313C56.1689 55.3576 56.2206 55.1534 56.2204 54.9446C56.2201 54.665 56.1271 54.3969 55.9619 54.1992C55.7966 54.0014 55.5726 53.8902 55.3389 53.8898V53.8898Z" fill="white"/>
<path d="M29.3229 57.5525C28.8918 57.5525 28.4705 57.3995 28.1121 57.113C27.7536 56.8264 27.4743 56.4191 27.3093 55.9426C27.1444 55.4661 27.1012 54.9417 27.1853 54.4358C27.2694 53.9299 27.477 53.4652 27.7818 53.1005C28.0866 52.7358 28.4749 52.4874 28.8977 52.3868C29.3205 52.2862 29.7587 52.3378 30.1569 52.5352C30.5552 52.7326 30.8956 53.0668 31.135 53.4957C31.3745 53.9246 31.5024 54.4288 31.5024 54.9446C31.5018 55.6361 31.2721 56.299 30.8634 56.788C30.4548 57.2769 29.9008 57.5519 29.3229 57.5525V57.5525ZM29.3229 53.8898C29.1484 53.8898 28.9778 53.9517 28.8327 54.0677C28.6876 54.1837 28.5746 54.3487 28.5078 54.5416C28.4411 54.7345 28.4236 54.9468 28.4577 55.1516C28.4918 55.3564 28.5759 55.5444 28.6993 55.692C28.8228 55.8396 28.98 55.9401 29.1512 55.9807C29.3224 56.0214 29.4997 56.0004 29.6609 55.9204C29.8221 55.8403 29.9598 55.7049 30.0567 55.5312C30.1536 55.3576 30.2052 55.1534 30.2051 54.9446C30.2049 54.6648 30.1119 54.3965 29.9464 54.1987C29.781 54.0009 29.5567 53.8898 29.3229 53.8898V53.8898Z" fill="white"/>
<path d="M29.3229 60.6082C28.3864 60.6082 27.4709 60.2759 26.6922 59.6533C25.9135 59.0307 25.3066 58.1458 24.9482 57.1105C24.5898 56.0752 24.496 54.936 24.6788 53.8369C24.8615 52.7378 25.3124 51.7282 25.9747 50.9358C26.6369 50.1434 27.4806 49.6037 28.3991 49.3851C29.3177 49.1665 30.2697 49.2787 31.135 49.7075C32.0002 50.1364 32.7397 50.8626 33.26 51.7944C33.7803 52.7262 34.058 53.8216 34.058 54.9422C34.0572 56.4446 33.558 57.8852 32.6702 58.9476C31.7824 60.0099 30.5785 60.6072 29.3229 60.6082ZM29.3229 50.8332C28.643 50.8332 27.9783 51.0745 27.4129 51.5265C26.8476 51.9785 26.407 52.621 26.1468 53.3727C25.8866 54.1243 25.8185 54.9515 25.9511 55.7494C26.0838 56.5474 26.4112 57.2804 26.892 57.8557C27.3728 58.431 27.9853 58.8228 28.6522 58.9815C29.3191 59.1402 30.0103 59.0588 30.6385 58.7474C31.2667 58.4361 31.8036 57.9088 32.1814 57.2323C32.5591 56.5558 32.7607 55.7605 32.7607 54.9469C32.7607 54.4067 32.6718 53.8718 32.4991 53.3727C32.3263 52.8736 32.0731 52.4201 31.7538 52.0381C31.4346 51.6561 31.0556 51.3531 30.6385 51.1464C30.2214 50.9396 29.7744 50.8332 29.3229 50.8332V50.8332Z" fill="white"/>
<path d="M45.947 48.5133H44.6497C44.4777 48.5133 44.3127 48.4315 44.1911 48.2859C44.0694 48.1404 44.0011 47.9429 44.0011 47.7371C44.0011 47.5312 44.0694 47.3338 44.1911 47.1883C44.3127 47.0427 44.4777 46.9609 44.6497 46.9609H45.947C46.1191 46.9609 46.2841 47.0427 46.4057 47.1883C46.5274 47.3338 46.5957 47.5312 46.5957 47.7371C46.5957 47.9429 46.5274 48.1404 46.4057 48.2859C46.2841 48.4315 46.1191 48.5133 45.947 48.5133Z" fill="white"/>
<path d="M38.4876 48.5133H37.1903C37.0182 48.5133 36.8533 48.4315 36.7316 48.2859C36.61 48.1404 36.5416 47.9429 36.5416 47.7371C36.5416 47.5312 36.61 47.3338 36.7316 47.1883C36.8533 47.0427 37.0182 46.9609 37.1903 46.9609H38.4876C38.6596 46.9609 38.8246 47.0427 38.9462 47.1883C39.0679 47.3338 39.1362 47.5312 39.1362 47.7371C39.1362 47.9429 39.0679 48.1404 38.9462 48.2859C38.8246 48.4315 38.6596 48.5133 38.4876 48.5133Z" fill="white"/>
<path d="M40.542 34.5424H32.515C32.3429 34.5424 32.178 34.4606 32.0563 34.315C31.9347 34.1695 31.8663 33.972 31.8663 33.7662V30.6615C31.8663 30.4557 31.9347 30.2583 32.0563 30.1127C32.178 29.9672 32.3429 29.8854 32.515 29.8854H40.542C40.714 29.8854 40.879 29.9672 41.0007 30.1127C41.1223 30.2583 41.1907 30.4557 41.1907 30.6615V33.7662C41.1907 33.972 41.1223 34.1695 41.0007 34.315C40.879 34.4606 40.714 34.5424 40.542 34.5424ZM33.1636 32.99H39.8934V31.4377H33.1636V32.99Z" fill="white"/>
<path d="M46.3655 31.4377H26.6914C26.5193 31.4377 26.3544 31.3559 26.2327 31.2104C26.1111 31.0648 26.0427 30.8674 26.0427 30.6615C26.0427 30.4557 26.1111 30.2583 26.2327 30.1127C26.3544 29.9672 26.5193 29.8854 26.6914 29.8854H46.3655C46.5376 29.8854 46.7026 29.9672 46.8242 30.1127C46.9458 30.2583 47.0142 30.4557 47.0142 30.6615C47.0142 30.8674 46.9458 31.0648 46.8242 31.2104C46.7026 31.3559 46.5376 31.4377 46.3655 31.4377Z" fill="white"/>
<path d="M44.7796 31.4346H33.0247C32.8527 31.4346 32.6877 31.3528 32.5661 31.2073C32.4444 31.0617 32.3761 30.8643 32.3761 30.6584C32.3761 30.4526 32.4444 30.2552 32.5661 30.1096C32.6877 29.964 32.8527 29.8823 33.0247 29.8823H44.1309V20.0087C44.1309 19.8877 44.0907 19.7716 44.0192 19.686C43.9477 19.6004 43.8507 19.5523 43.7495 19.5523H34.0548C33.9537 19.5525 33.8568 19.6007 33.7853 19.6862C33.7138 19.7718 33.6736 19.8877 33.6734 20.0087V22.8495C33.6734 23.0553 33.6051 23.2527 33.4834 23.3983C33.3618 23.5439 33.1968 23.6256 33.0247 23.6256C32.8527 23.6256 32.6877 23.5439 32.5661 23.3983C32.4444 23.2527 32.3761 23.0553 32.3761 22.8495V20.0087C32.3766 19.4762 32.5536 18.9656 32.8683 18.589C33.1831 18.2124 33.6097 18.0006 34.0548 18H43.7476C44.193 18 44.6201 18.2116 44.9353 18.5882C45.2504 18.9648 45.4277 19.4758 45.4282 20.0087V30.6584C45.4282 30.8643 45.3599 31.0617 45.2382 31.2073C45.1166 31.3528 44.9516 31.4346 44.7796 31.4346Z" fill="white"/>
<path d="M38.9014 31.4377H28.6884C28.5164 31.4377 28.3514 31.3559 28.2298 31.2104C28.1081 31.0648 28.0398 30.8674 28.0398 30.6615V24.0805C28.0403 23.5476 28.2174 23.0368 28.5322 22.6599C28.847 22.2831 29.2739 22.071 29.7191 22.0702H37.8701C38.3155 22.0708 38.7425 22.2828 39.0574 22.6597C39.3724 23.0365 39.5496 23.5475 39.5501 24.0805V30.6615C39.5501 30.8674 39.4817 31.0648 39.3601 31.2104C39.2384 31.3559 39.0734 31.4377 38.9014 31.4377V31.4377ZM29.3371 29.8854H38.2528V24.0805C38.2526 23.9591 38.2122 23.8427 38.1405 23.7569C38.0688 23.671 37.9715 23.6227 37.8701 23.6225H29.7191C29.6178 23.6227 29.5206 23.6711 29.449 23.7569C29.3773 23.8428 29.3371 23.9591 29.3371 24.0805V29.8854Z" fill="white"/>
</svg>
